Coordinates
version=1
nRows=29
nColumns=22
inDegrees=yes

Units are S.I. units (second, meters, Newtons, ...)
If the header above contains a line with 'inDegrees', this indicates whether rotational values are in degrees (yes) or radians (no).

endheader
time	pelvis_tilt	pelvis_list	pelvis_rotation	pelvis_tx	pelvis_ty	pelvis_tz	hip_flexion_r	hip_adduction_r	hip_rotation_r	knee_angle_r	ankle_angle_r	subtalar_angle_r	hip_flexion_l	hip_adduction_l	hip_rotation_l	knee_angle_l	ankle_angle_l	subtalar_angle_l	lumbar_extension	lumbar_bending	lumbar_rotation
      3.49000000	      3.25549274	     -6.94985930	    -24.94048260	      0.35974540	      0.90001606	      0.36664905	     -4.69370832	      9.13896012	    -10.56627508	    -13.70404530	     17.59631467	     -3.77454249	     23.67261953	    -10.75307038	     -4.30936316	    -53.33296612	      8.09022480	     -3.41761432	    -11.07789214	      2.12898103	      5.21117193
      3.50000000	      3.33402131	     -6.94192267	    -25.16658460	      0.36606133	      0.89975141	      0.37059791	     -5.47234577	      9.16156485	    -10.33863203	    -13.39906965	     17.83726738	     -3.94679934	     23.80755249	    -10.90254753	     -5.25937400	    -50.84728887	      8.24356195	     -3.57957637	    -11.16894270	      2.05295980	      5.31472830
      3.51000000	      3.38493615	     -6.92669238	    -25.39865544	      0.37241682	      0.89930745	      0.37441029	     -6.15751851	      9.16540878	    -10.12835170	    -13.21228339	     18.12478399	     -4.08703875	     23.91722671	    -11.02590776	     -6.23950582	    -48.32885093	      8.33891526	     -3.55681122	    -11.23043161	      1.99694018	      5.41506682
      3.52000000	      3.48324707	     -6.92537402	    -25.58609064	      0.37887113	      0.89882832	      0.37803786	     -6.89431784	      9.15376475	     -9.91818576	    -13.02653554	     18.42358184	     -4.27317996	     23.92523960	    -11.07432859	     -7.17606246	    -45.78313242	      8.31844951	     -3.42139113	    -11.34911357	      1.95137680	      5.45205367
      3.53000000	      3.59568859	     -6.93382444	    -25.75127287	      0.38540096	      0.89824936	      0.38149746	     -7.62290346	      9.12882427	     -9.71571374	    -12.88959270	     18.75652092	     -4.47417183	     23.88251913	    -11.06873952	     -8.07888192	    -43.25399229	      8.22891049	     -3.15559722	    -11.48851700	      1.92763049	      5.45486989
      3.54000000	      3.73165199	     -6.95969149	    -25.89414158	      0.39198891	      0.89759572	      0.38482599	     -8.37404856	      9.10121174	     -9.48649207	    -12.76707560	     19.10044905	     -4.71223461	     23.78371610	    -11.00641329	     -8.90385517	    -40.76333849	      8.09694669	     -2.69588686	    -11.66379761	      1.91852839	      5.42916216
      3.55000000	      3.85092787	     -6.95773235	    -26.04349751	      0.39861273	      0.89677935	      0.38801019	     -9.02041818	      9.02244873	     -9.31179287	    -12.78538134	     19.53536917	     -4.84956181	     23.69600193	    -10.88800575	     -9.73033922	    -38.34088505	      7.93474324	     -2.29818874	    -11.81378436	      1.90597544	      5.39335734
      3.56000000	      3.97641785	     -6.95324148	    -26.18261913	      0.40528341	      0.89587248	      0.39107057	     -9.66006505	      8.92556853	     -9.11750119	    -12.82362254	     19.99295090	     -4.97085435	     23.58788086	    -10.69636660	    -10.42698399	    -35.98873599	      7.78709664	     -1.84404473	    -11.97092057	      1.89030550	      5.37432955
      3.57000000	      4.12931481	     -6.98159145	    -26.31852895	      0.41199590	      0.89493353	      0.39404654	    -10.32182546	      8.83118557	     -8.92486231	    -12.90051504	     20.43972238	     -5.10231877	     23.43819504	    -10.50780868	    -11.11907903	    -33.75790747	      7.62692189	     -1.26331372	    -12.17866857	      1.90512723	      5.30830365
      3.58000000	      4.25742989	     -7.01441862	    -26.45156882	      0.41875760	      0.89389851	      0.39692384	    -10.96637827	      8.74263317	     -8.71267802	    -12.96618442	     20.87201216	     -5.22948845	     23.31125697	    -10.28561206	    -11.67755355	    -31.64047458	      7.47301699	     -0.54630886	    -12.36336018	      1.94149769	      5.28009362
      3.59000000	      4.36399966	     -7.00837657	    -26.60611302	      0.42553121	      0.89275937	      0.39970926	    -11.50406547	      8.59581193	     -8.54419194	    -13.15662311	     21.36059813	     -5.29792326	     23.21372066	    -10.01263086	    -12.17906563	    -29.63751730	      7.32062078	      0.02250991	    -12.51333694	      1.95179498	      5.25844185
      3.60000000	      4.44969504	     -6.98661500	    -26.77694795	      0.43234120	      0.89156173	      0.40243144	    -11.98919207	      8.42430302	     -8.38554453	    -13.39335981	     21.84342642	     -5.34126781	     23.13434398	     -9.71229476	    -12.58664187	    -27.75454400	      7.16045907	      0.56842960	    -12.63648477	      1.95705054	      5.25373659
      3.61000000	      4.50869812	     -6.94396801	    -26.96726187	      0.43918351	      0.89031799	      0.40510338	    -12.41468328	      8.22731642	     -8.22878479	    -13.67425941	     22.30978801	     -5.36814232	     23.07709602	     -9.38860955	    -12.88952657	    -25.98910432	      6.98176569	      1.09219716	    -12.72425389	      1.95226134	      5.26258972
      3.62000000	      4.53127339	     -6.87727587	    -27.17814545	      0.44606576	      0.88903478	      0.40773911	    -12.77287435	      8.00859679	     -8.07674410	    -13.99335219	     22.74916219	     -5.38607210	     23.05062773	     -9.04828379	    -13.06939908	    -24.34389092	      6.78077590	      1.55223894	    -12.76362137	      1.93802142	      5.30040600
      3.63000000	      4.48405717	     -6.76643252	    -27.41304032	      0.45299976	      0.88766488	      0.41035140	    -13.01483435	      7.76708089	     -7.92626553	    -14.36665712	     23.17820551	     -5.39327879	     23.09606002	     -8.69291818	    -13.11020629	    -22.82431794	      6.55395308	      1.82617468	    -12.70533708	      1.91174080	      5.34254883
      3.64000000	      4.45352096	     -6.66302826	    -27.67673466	      0.45998372	      0.88639600	      0.41298972	    -13.27448654	      7.51481860	     -7.73780449	    -14.74930522	     23.52702524	     -5.41482051	     23.08148855	     -8.34746756	    -13.04607722	    -21.41174311	      6.31221475	      2.18294879	    -12.66942845	      1.87364351	      5.41924558
      3.65000000	      4.36392143	     -6.54131335	    -27.95462024	      0.46706945	      0.88509881	      0.41565675	    -13.47851705	      7.27239089	     -7.52488848	    -15.12058956	     23.82434692	     -5.43070336	     23.11521612	     -8.02196326	    -12.83921823	    -20.14933143	      6.07485058	      2.45381733	    -12.55046281	      1.83814930	      5.52894224
      3.66000000	      4.25532882	     -6.41124319	    -28.25524591	      0.47424955	      0.88384763	      0.41836553	    -13.65163303	      7.02391638	     -7.28941984	    -15.51766537	     24.07379438	     -5.44918346	     23.14170378	     -7.71852158	    -12.54043734	    -19.03711546	      5.82342066	      2.70183985	    -12.40278025	      1.79403810	      5.65662551
      3.67000000	      4.11899735	     -6.28104154	    -28.57114560	      0.48154742	      0.88263762	      0.42111853	    -13.79989150	      6.78521387	     -7.02585201	    -15.92216716	     24.26579902	     -5.46370564	     23.17320869	     -7.45010716	    -12.15545066	    -18.09905032	      5.56802952	      2.90102118	    -12.21688520	      1.75662334	      5.80342789
      3.68000000	      3.95911331	     -6.14973106	    -28.89876691	      0.48899610	      0.88148119	      0.42391805	    -13.93304326	      6.55046157	     -6.74144388	    -16.32518645	     24.40757060	     -5.46915113	     23.20889161	     -7.21685280	    -11.71662279	    -17.35336126	      5.28839223	      3.02704094	    -11.99266515	      1.72216292	      5.96586385
      3.69000000	      3.78625326	     -6.01902329	    -29.23280611	      0.49660603	      0.88039684	      0.42676548	    -14.05921248	      6.31654965	     -6.44086516	    -16.73215410	     24.50193970	     -5.46297309	     23.24073586	     -7.01489590	    -11.25232589	    -16.81257597	      4.97105090	      3.07811772	    -11.74127776	      1.68716641	      6.13714319
      3.70000000	      3.60788425	     -5.88599379	    -29.56526924	      0.50438334	      0.87939555	      0.42964448	    -14.18282199	      6.07761321	     -6.12781600	    -17.14377666	     24.55121633	     -5.43891524	     23.27423088	     -6.83522115	    -10.78383996	    -16.49402241	      4.59717969	      3.04228066	    -11.47033132	      1.64509056	      6.31147497
      3.71000000	      3.42420139	     -5.74924785	    -29.88849677	      0.51233689	      0.87848057	      0.43254265	    -14.30150521	      5.83265993	     -5.81404200	    -17.56182888	     24.55770223	     -5.38649817	     23.31506616	     -6.67306951	    -10.33623994	    -16.39546388	      4.14885322	      2.89986021	    -11.17884441	      1.59710338	      6.47585607
      3.72000000	      3.23976878	     -5.60478408	    -30.19246199	      0.52045474	      0.87765332	      0.43544133	    -14.41173036	      5.57974018	     -5.50559483	    -17.99384831	     24.51539498	     -5.28989663	     23.37699991	     -6.51661538	     -9.91790220	    -16.52402955	      3.62091920	      2.63000024	    -10.87150605	      1.53528806	      6.62167590
      3.73000000	      3.04847359	     -5.45048901	    -30.47050165	      0.52871639	      0.87689969	      0.43829201	    -14.47840103	      5.31608307	     -5.21788274	    -18.48908699	     24.42506679	     -5.09376017	     23.48238529	     -6.36070686	     -9.52409522	    -16.87533176	      3.06141595	      2.15025534	    -10.54791641	      1.46940430	      6.72115541
      3.74000000	      2.88656591	     -5.29088826	    -30.71215335	      0.53713034	      0.87630559	      0.44111348	    -14.57366178	      5.03798476	     -4.92453526	    -18.97861121	     24.25115660	     -4.86272111	     23.58579886	     -6.18248883	     -9.13979477	    -17.40404583	      2.41714171	      1.66277827	    -10.24490155	      1.37451823	      6.80917803
      3.75000000	      2.73975394	     -5.12262287	    -30.91392086	      0.54566349	      0.87585917	      0.44386342	    -14.65234347	      4.74654894	     -4.64156386	    -19.51095696	     23.97994242	     -4.58385217	     23.71702255	     -5.98160479	     -8.76114943	    -18.09460548	      1.72446133	      1.15041101	     -9.95283884	      1.25968052	      6.87243313
      3.76000000	      2.61521840	     -4.93278914	    -31.06633974	      0.55431149	      0.87557543	      0.44650538	    -14.70254655	      4.42834430	     -4.35815928	    -20.10292103	     23.61700230	     -4.28336684	     23.87881188	     -5.73622500	     -8.38995334	    -18.91555199	      1.00639478	      0.65913105	     -9.67241484	      1.11653196	      6.88557696
      3.77000000	      2.51905476	     -4.72772854	    -31.16782968	      0.56304633	      0.87549293	      0.44904675	    -14.72228883	      4.09080246	     -4.07203248	    -20.76742803	     23.13680353	     -3.97425068	     24.05234341	     -5.44454418	     -8.00715497	    -19.82417671	      0.30013916	      0.20294126	     -9.41618460	      0.94359004	      6.84838434
